<?xml version="1.0" encoding="UTF-8"?>
<svg width="512px" height="512px" viewBox="0 0 512 512" version="1.1" xmlns="http://www.w3.org/2000/svg" xmlns:xlink="http://www.w3.org/1999/xlink">
    <!-- Generator: Sketch 53.1 (72631) - https://sketchapp.com -->
    <title>hands</title>
    <desc>Created with Sketch.</desc>
    <g id="Logo" stroke="none" stroke-width="1" fill="none" fill-rule="evenodd">
        <g id="Artboard" transform="translate(-7.000000, -24.000000)" fill-rule="nonzero">
            <g id="hands" transform="translate(7.000000, 24.000000)">
                <circle id="Oval" fill="#F0F3F8" cx="256" cy="256" r="256"></circle>
                <path d="M512,256 C512,187.88 485.387,125.982 441.999,80.116 C441.597,79.691 441.194,79.265 440.789,78.842 C439.76,77.769 438.721,76.707 437.674,75.652 C437.374,75.35 437.077,75.045 436.776,74.744 C434.131,72.106 431.427,69.529 428.67,67.009 L353.74,127.361 C349.16,131.051 343.55,132.891 338.31,132.421 C319.07,130.681 288.51,127.071 272.82,125.791 C266.56,125.281 260.92,125.811 256,127.251 C251.08,125.811 245.44,125.281 239.18,125.791 C223.49,127.071 192.93,130.681 173.69,132.421 C168.45,132.891 162.84,131.051 158.26,127.361 L83.33,67.008 C50.857,96.693 26.072,134.638 12.275,177.515 L132.35,299.334 C134.069,305.266 137.606,311.268 143.05,317 C153.88,328.42 175.86,349.95 189.29,363.84 C192.93,367.62 195.02,373.15 195.02,379.02 L195.02,504.672 C214.565,509.449 234.983,512 256,512 C397.385,512 512,397.385 512,256 Z" id="Path" fill="#CAD3E6"></path>
                <path d="M320.63,260.8 C319.1,264.08 316.21,266.54 312.47,267.72 C310.09,268.47 306.79,268.89 302.46,268.17 C301.5,268 300.5,267.79 299.44,267.51 C295.84,266.55 291.65,264.85 286.82,262.05 C282.78,259.71 277.6,256.78 272.01,253.65 C271.38,253.3 270.75,252.94 270.11,252.59 C267.49,251.12 264.79,249.63 262.1,248.14 C260.05,247.01 258.01,245.88 256,244.76 C245.62,239.04 236.09,233.84 231.67,231.43 C231.65,231.42 231.62,231.4 231.6,231.4 C231.21,231.19 230.87,231.15 230.62,231.18 C230.46,231.2 230.33,231.25 230.28,231.31 C230.14,231.49 230.23,232.3 231.04,232.95 L231.6,233.4 L249.9,248.14 L256,253.06 L286.69,277.78 L290.9,281.17 L302.4,290.43 C309.97,296.53 313.77,302.1 315.41,306.88 C316.7,310.64 316.66,313.92 316.06,316.6 C316.05,316.6 316.05,316.61 316.05,316.61 C315.31,319.89 313.73,322.26 312.73,323.5 C311.99,324.42 311.17,325.22 310.28,325.91 L310.28,325.92 C306.33,329.03 300.96,329.99 295.11,328.86 C289.82,327.87 284.14,325.17 278.74,320.82 L265.04,309.78 L256,302.5 L225.31,277.78 L212.56,267.51 L206.52,262.64 C205.77,262.04 205.05,262.15 204.98,262.25 C204.91,262.33 204.91,262.83 205.37,263.37 C206.45,264.64 207.87,266.27 209.54,268.17 C212.7,271.77 216.76,276.34 221.1,281.17 C230.68,291.87 241.57,303.9 246.96,309.78 C247.45,310.32 247.9,310.8 248.29,311.23 C251.3,314.49 253.86,317.53 256,320.38 C262.07,328.47 264.68,335.04 264.14,340.62 C263.77,344.49 261.87,347.71 258.48,350.2 C257.65,350.81 256.82,351.32 256,351.74 C244.41,357.65 233,345.72 220.97,333.16 C219.66,331.79 218.29,330.35 216.89,328.86 C210.44,322.03 203.16,314.1 196.59,306.88 C192.14,302 188.02,297.45 184.69,293.77 C182.25,291.07 180.17,288.78 178.64,287.09 C177.98,286.37 177.09,286.26 176.83,286.44 C176.78,286.47 176.72,286.85 177.05,287.36 C181.15,293.57 188.89,305.4 195.95,316.61 L195.95,316.62 C197.96,319.81 199.91,322.95 201.71,325.9 L201.72,325.91 C203.82,329.37 205.71,332.56 207.23,335.25 C212.31,344.24 213.85,351.61 211.81,357.17 C210.54,360.66 207.86,363.25 204.09,364.66 C191.26,369.42 182.38,358.54 165.19,332.56 C153.21,314.45 141.68,298.86 131.55,286.02 C111.12,260.13 96.37,245.48 95.02,244.15 L12.26,177.5 C26.06,134.63 50.85,96.69 83.32,67 L158.26,127.36 C162.84,131.05 168.45,132.89 173.69,132.42 C192.93,130.68 223.49,127.07 239.18,125.79 C245.44,125.28 251.08,125.81 256,127.25 C266.85,130.41 274.15,137.99 276.71,148.52 C277.92,153.52 276.98,158.26 274,162.22 C272.93,163.63 271.63,164.91 270.12,166.06 C266.53,168.79 261.74,170.76 256,171.86 C253.22,172.4 250.22,172.73 247.02,172.85 C243.15,173 237.36,173.44 231.6,173.94 C227.96,174.26 224.34,174.6 221.2,174.9 C224.09,176.66 227.62,178.83 231.6,181.27 C238.72,185.65 247.25,190.92 256,196.38 C260.7,199.31 265.47,202.29 270.12,205.22 C273.17,207.15 276.16,209.05 279.06,210.89 C288.89,217.16 297.52,222.8 302.87,226.58 C306.17,228.91 308.96,231.17 311.3,233.35 C313.22,235.14 314.83,236.88 316.19,238.56 C323.67,247.86 323.1,255.48 320.63,260.8 Z" id="Path" fill="#FFB84D"></path>
                <path d="M308.64,327.05 C304.89,329.25 300.18,329.85 295.1,328.87 C289.81,327.87 284.14,325.16 278.74,320.82 L265.04,309.78 L256.21,302.67 L256,302.5 L244.92,293.57 L206.52,262.64 C205.77,262.04 205.05,262.15 204.97,262.26 C204.91,262.33 204.91,262.81 205.37,263.37 C211.09,270.07 226.42,287.15 237.59,299.48 C241.37,303.65 244.67,307.27 246.96,309.78 C247.46,310.31 247.9,310.79 248.29,311.22 C251.3,314.48 253.86,317.52 256,320.37 C256.07,320.46 256.14,320.55 256.21,320.64 L256.21,320.65 C262.13,328.63 264.67,335.1 264.14,340.62 C263.78,344.5 261.87,347.71 258.48,350.2 C257.72,350.76 256.96,351.24 256.2,351.64 C256.13,351.67 256.07,351.71 256,351.74 C244.41,357.65 233,345.72 220.97,333.16 C219.66,331.79 218.3,330.36 216.9,328.87 C214.71,326.55 212.43,324.11 210.11,321.61 C200.97,311.76 191.27,301.03 184.69,293.77 C182.25,291.07 180.17,288.78 178.64,287.09 C177.98,286.37 177.09,286.26 176.83,286.44 C176.78,286.47 176.71,286.84 177.05,287.36 C183.69,297.42 199.9,322.24 207.23,335.25 C212.31,344.24 213.85,351.61 211.81,357.17 C210.54,360.66 207.86,363.26 204.09,364.66 C191.26,369.42 182.38,358.54 165.19,332.56 C129.03,277.92 97.05,246.14 95.02,244.15 L12.26,177.5 C19.65,154.54 30.2,133 43.38,113.38 L256,284.65 L256.21,284.82 L267.08,293.57 L274.41,299.48 L301.89,321.61 L308.64,327.05 Z" id="Path" fill="#FF9A00"></path>
                <path d="M499.74,177.5 L416.98,244.15 C414.96,246.14 382.97,277.92 346.81,332.56 C338.18,345.61 331.64,354.84 325.65,360.2 C319.71,365.52 314.3,367.03 307.91,364.66 C304.14,363.25 301.46,360.66 300.19,357.17 C298.15,351.61 299.69,344.24 304.77,335.25 C306.29,332.56 308.18,329.37 310.28,325.91 C312.09,322.96 314.04,319.81 316.05,316.61 C323.11,305.4 330.85,293.57 334.95,287.36 C335.28,286.85 335.22,286.47 335.17,286.44 C334.91,286.26 334.02,286.37 333.36,287.09 C331.83,288.78 329.75,291.07 327.31,293.77 C323.98,297.45 319.86,302 315.41,306.88 C308.84,314.1 301.56,322.03 295.11,328.86 C293.71,330.35 292.34,331.79 291.03,333.16 C279,345.72 267.59,357.65 256,351.74 C255.18,351.32 254.35,350.81 253.52,350.2 C250.13,347.71 248.23,344.49 247.86,340.62 C247.32,335.04 249.93,328.47 256,320.38 C258.14,317.53 260.7,314.49 263.71,311.23 C264.1,310.8 264.55,310.32 265.04,309.78 C270.43,303.9 281.32,291.87 290.9,281.17 C295.24,276.34 299.3,271.77 302.46,268.17 C304.12,266.28 305.54,264.65 306.61,263.39 C306.62,263.38 306.62,263.38 306.63,263.37 C307.09,262.83 307.09,262.33 307.02,262.25 C307,262.22 306.91,262.18 306.77,262.18 C306.49,262.15 305.99,262.23 305.48,262.64 L299.44,267.51 L286.69,277.78 L256,302.5 L246.96,309.78 L233.26,320.82 C227.86,325.17 222.18,327.87 216.89,328.86 C211.04,329.99 205.67,329.03 201.72,325.91 C200.83,325.22 200.01,324.42 199.27,323.5 C198.27,322.26 196.69,319.89 195.95,316.61 C195.34,313.93 195.29,310.65 196.59,306.88 C198.23,302.1 202.03,296.53 209.6,290.43 L221.1,281.17 L225.31,277.78 L256,253.06 L262.1,248.14 L270.11,241.69 L274.67,238.01 L280.96,232.95 C281.77,232.3 281.86,231.49 281.72,231.31 C281.67,231.25 281.54,231.2 281.38,231.18 C281.11,231.15 280.75,231.2 280.33,231.43 C279.05,232.13 277.34,233.06 275.3,234.17 C273.75,235.03 272,235.98 270.11,237.01 C265.94,239.3 261.07,241.97 256,244.76 C253.99,245.88 251.95,247.01 249.9,248.14 C240.72,253.22 231.54,258.36 225.18,262.05 C220.35,264.85 216.16,266.55 212.56,267.51 C211.5,267.79 210.5,268 209.54,268.17 C205.21,268.89 201.91,268.47 199.53,267.72 C195.79,266.54 192.9,264.08 191.37,260.8 C187.91,253.34 188.18,241.36 209.13,226.58 C212.59,224.14 217.42,220.92 223.06,217.25 C225.74,215.51 228.61,213.66 231.6,211.75 C239.26,206.85 247.73,201.53 256,196.38 C260.84,193.36 265.61,190.4 270.12,187.61 C275.59,184.23 280.67,181.11 284.98,178.46 C287.12,177.15 289.08,175.95 290.8,174.9 C289.4,174.77 287.9,174.62 286.35,174.48 C281,173.98 275.01,173.46 270.12,173.13 C268.2,173.01 266.45,172.91 264.98,172.85 C261.78,172.73 258.78,172.4 256,171.86 C247.85,170.29 241.6,166.98 238,162.22 C235.02,158.26 234.08,153.52 235.29,148.52 C235.84,146.25 236.61,144.12 237.6,142.14 C241.16,134.93 247.49,129.73 256,127.25 C260.92,125.81 266.56,125.28 272.82,125.79 C288.51,127.07 319.07,130.68 338.31,132.42 C343.55,132.89 349.16,131.05 353.74,127.36 L428.68,67 C461.15,96.69 485.94,134.63 499.74,177.5 Z" id="Path" fill="#9A4C00"></path>
                <path d="M499.74,177.5 L416.98,244.15 C414.95,246.14 382.97,277.92 346.81,332.56 C338.18,345.61 331.64,354.84 325.65,360.2 C319.71,365.52 314.3,367.03 307.91,364.66 C304.14,363.26 301.46,360.66 300.19,357.17 C298.15,351.61 299.69,344.24 304.77,335.25 C312.1,322.24 328.31,297.42 334.95,287.36 C335.29,286.84 335.22,286.47 335.17,286.44 C334.91,286.26 334.02,286.37 333.36,287.09 C331.83,288.78 329.75,291.07 327.31,293.77 C320.73,301.03 311.03,311.76 301.89,321.61 C299.57,324.11 297.29,326.55 295.1,328.87 C293.7,330.36 292.34,331.79 291.03,333.16 C279.07,345.65 267.72,357.51 256.2,351.84 C256.13,351.81 256.07,351.78 256,351.74 C255.18,351.32 254.35,350.81 253.52,350.2 C250.13,347.71 248.22,344.5 247.86,340.62 C247.32,335.04 249.93,328.47 256,320.37 C256.07,320.28 256.14,320.19 256.21,320.09 C258.3,317.32 260.8,314.37 263.71,311.22 C264.1,310.79 264.54,310.31 265.04,309.78 C267.33,307.27 270.63,303.65 274.41,299.48 C285.57,287.16 300.88,270.11 306.61,263.39 C306.62,263.38 306.62,263.38 306.63,263.37 C307.09,262.81 307.09,262.33 307.03,262.26 C307.01,262.23 306.91,262.19 306.77,262.18 C306.48,262.15 305.99,262.24 305.48,262.64 L267.08,293.57 L256.21,302.33 L256,302.5 L246.96,309.78 L233.26,320.82 C227.86,325.16 222.19,327.87 216.9,328.87 C211.82,329.85 207.11,329.25 203.36,327.05 L210.11,321.61 L237.59,299.48 L244.92,293.57 L256,284.65 L256.21,284.48 L310.09,241.08 L317.29,235.28 L357.84,202.62 L468.62,113.38 C481.8,133 492.35,154.54 499.74,177.5 Z" id="Path" fill="#703700"></path>
                <path d="M325.65,355.02 L325.65,360.2 L325.66,502.41 C303.51,508.66 280.15,512 256,512 C234.99,512 214.56,509.47 195.02,504.69 L195.02,379.02 C195.02,373.15 192.93,367.62 189.29,363.84 C175.86,349.95 153.88,328.42 143.05,317 C133.45,306.89 129.75,295.94 131.55,286.02 C132.35,281.59 134.24,277.37 137.2,273.51 C140.33,269.43 144.61,267.19 149.57,267.03 C157.57,266.78 166.54,271.89 174.78,281.37 C178.92,286.13 186.86,294.36 192.57,300.2 C189.72,278.29 182.85,224.07 181.58,204.17 C179.95,178.59 189.12,170.86 197.09,168.88 C200.61,168.01 204.34,168.72 207.61,170.89 C211.69,173.61 217.04,179.91 219.27,194.42 C220.21,200.48 221.58,208.7 223.06,217.25 C225.77,233.03 228.82,249.95 230.02,256.58 C230.11,257.04 230.3,257.37 230.49,257.55 C230.6,257.67 230.72,257.73 230.8,257.73 C231.03,257.73 231.6,257.16 231.6,256.12 L231.6,164.48 C231.6,153.22 234.22,146.34 237.6,142.14 L237.61,142.13 C242.23,136.39 248.27,135.69 250.88,135.7 C262.02,135.69 270.11,147.53 270.12,163.85 L270.12,205.22 L270.11,237.01 L270.11,256.59 C270.11,257.54 270.64,258.03 270.77,258.03 C270.88,258.03 271.26,257.71 271.39,257.03 C271.57,256.07 271.78,254.93 272.01,253.65 C272.73,249.59 273.66,244.09 274.67,238.01 C274.88,236.76 275.09,235.47 275.3,234.17 C276.57,226.46 277.9,218.16 279.06,210.89 C280.24,203.46 281.22,197.1 281.75,193.58 C282.62,187.7 283.69,182.68 284.98,178.46 C285.41,177.04 285.87,175.72 286.35,174.48 C288.56,168.84 291.31,165.02 294.69,162.8 C297.94,160.67 301.64,160.12 305.7,161.2 C320.63,165.16 318.36,182.62 315.96,201.1 C314.73,210.64 312.97,222.44 311.3,233.35 C310.1,241.08 308.95,248.36 308.05,254.06 C307.54,257.26 307.1,260.02 306.77,262.18 C306.72,262.45 306.68,262.72 306.64,262.97 C306.62,263.12 306.61,263.26 306.61,263.39 C306.63,264.15 307.01,264.7 307.26,264.78 C307.32,264.8 307.66,264.61 307.84,264.04 C309.66,258.37 312.8,248.64 316.19,238.56 C319.67,228.22 323.4,217.52 326.2,210.49 C330.02,200.89 334.8,195.07 340.4,193.17 C343.93,191.97 347.62,192.44 351.09,194.49 C362.84,201.5 359.93,215.23 350.48,244.91 C330.62,307.35 325.93,352.2 325.65,355.02 Z" id="Path" fill="#FFDCA8"></path>
                <path d="M325.65,355.02 L325.65,360.2 L325.66,502.41 C303.57,508.64 280.28,511.98 256.2,512 L256.2,351.64 L256.21,320.64 L256.21,136.66 C264.51,139.79 270.11,150.27 270.12,163.85 L270.11,256.59 C270.11,257.55 270.65,258.04 270.78,258.04 C270.87,258.04 271.25,257.73 271.39,257.03 C273.7,244.82 280.07,204.83 281.74,193.59 C284.24,176.74 288.35,166.97 294.69,162.8 C297.94,160.65 301.64,160.12 305.7,161.2 C320.63,165.16 318.36,182.62 315.96,201.1 C314.43,212.95 312.09,228.31 310.09,241.08 C309.34,245.88 308.64,250.31 308.05,254.06 C307.54,257.26 307.1,260.02 306.77,262.18 C306.72,262.45 306.68,262.72 306.64,262.97 C306.62,263.12 306.61,263.26 306.61,263.39 C306.63,264.15 307.01,264.7 307.26,264.78 C307.32,264.8 307.65,264.62 307.84,264.04 C309.85,257.76 313.5,246.48 317.29,235.28 C320.44,226 323.7,216.77 326.2,210.49 C330.02,200.89 334.8,195.07 340.4,193.17 C343.93,191.97 347.63,192.43 351.09,194.49 C354.53,196.55 356.72,199.18 357.84,202.62 C360.57,210.92 357.16,223.93 350.48,244.91 C330.62,307.35 325.92,352.2 325.65,355.02 Z" id="Path" fill="#FFC56E"></path>
            </g>
        </g>
    </g>
</svg>