<?xml version="1.0" encoding="UTF-8"?>
<svg width="512px" height="512px" viewBox="0 0 512 512" version="1.1" xmlns="http://www.w3.org/2000/svg" xmlns:xlink="http://www.w3.org/1999/xlink">
    <!-- Generator: Sketch 53.1 (72631) - https://sketchapp.com -->
    <title>friend</title>
    <desc>Created with Sketch.</desc>
    <g id="Logo" stroke="none" stroke-width="1" fill="none" fill-rule="evenodd">
        <g id="Artboard" transform="translate(-84.000000, -24.000000)" fill-rule="nonzero">
            <g id="friend" transform="translate(84.000000, 24.000000)">
                <circle id="Oval" fill="#FFF7D1" cx="256" cy="256" r="256"></circle>
                <path d="M512,256 C512,241.857 510.835,227.989 508.629,214.47 L415.13,120.305 C408.71,112.703 399.12,107.853 388.451,107.853 L123.549,107.853 C104.336,107.853 88.617,123.572 88.617,142.785 L88.617,338.427 C88.617,348.159 92.652,356.991 99.129,363.341 L248.506,511.882 C250.996,511.954 253.493,511.999 256,511.999 C397.385,512 512,397.385 512,256 Z" id="Path" fill="#FFEC91"></path>
                <g id="Group" transform="translate(88.000000, 107.000000)">
                    <path d="M335.383,35.785 C335.383,16.572 319.664,0.853 300.451,0.853 L35.549,0.853 C16.336,0.853 0.617,16.572 0.617,35.785 L0.617,231.427 C0.617,250.64 16.337,266.359 35.549,266.359 L128.242,266.359 L168,328.333 L207.758,266.359 L300.451,266.359 C319.663,266.359 335.383,250.64 335.383,231.427 L335.383,35.785 Z" id="Path" fill="#1455DD"></path>
                    <path d="M335.38,35.79 L335.38,231.43 C335.38,250.64 319.66,266.36 300.45,266.36 L207.76,266.36 L168,328.33 L168,0.85 L300.45,0.85 C319.66,0.85 335.38,16.57 335.38,35.79 Z" id="Path" fill="#1455DD"></path>
                    <g transform="translate(91.000000, 37.000000)">
                        <path d="M153.833,187.707 L0.167,187.707 L0.167,158.794 C0.167,122.032 29.969,92.23 66.731,92.23 L87.268,92.23 C124.031,92.23 153.832,122.032 153.832,158.794 L153.833,187.707 L153.833,187.707 Z" id="Path" fill="#FFFFFF"></path>
                        <path d="M153.83,158.79 L153.83,187.71 L77,187.71 L77,92.23 L87.27,92.23 C124.03,92.23 153.83,122.03 153.83,158.79 Z" id="Path" fill="#FFF5CB"></path>
                        <circle id="Oval" fill="#FFFFFF" cx="77" cy="41.608" r="41.022"></circle>
                        <path d="M118.02,41.61 C118.02,64.26 99.66,82.63 77,82.63 L77,0.59 C99.66,0.59 118.02,18.95 118.02,41.61 Z" id="Path" fill="#FFF5CB"></path>
                    </g>
                </g>
            </g>
        </g>
    </g>
</svg>