<?xml version="1.0" encoding="UTF-8"?>
<svg width="58px" height="88px" viewBox="0 0 58 88" version="1.1" xmlns="http://www.w3.org/2000/svg" xmlns:xlink="http://www.w3.org/1999/xlink">
    <!-- Generator: Sketch 53.1 (72631) - https://sketchapp.com -->
    <title>Group</title>
    <desc>Created with Sketch.</desc>
    <g id="Logo" stroke="none" stroke-width="1" fill="none" fill-rule="evenodd" stroke-linecap="square">
        <g id="Artboard" transform="translate(-289.000000, -42.000000)" fill="#1455DD" fill-rule="nonzero" stroke="#1455DD">
            <g id="Group" transform="translate(290.000000, 43.000000)">
                <path d="M8.50059543,23 L8.50059543,23 C13.1953446,23 17.0011909,26.8058462 17.0011909,31.5005954 L17.0011909,44.4768524 C17.0011909,45.5814219 17.8966214,46.4768524 19.0011909,46.4768524 L36.6415019,46.4768524 C37.7460714,46.4768524 38.6415019,45.5814219 38.6415019,44.4768524 L38.6415019,31.6928094 C38.6415019,26.8919033 42.5334052,23 47.3343113,23 L47.3343113,23 C52.1352173,23 56.0271207,26.8919033 56.0271207,31.6928094 L56.0271207,84.4802838 C56.0271207,85.5848533 55.1316902,86.4802838 54.0271207,86.4802838 L40.6415019,86.4802838 C39.5369324,86.4802838 38.6415019,85.5848533 38.6415019,84.4802838 L38.6415019,63.4534914 C38.6415019,62.3489219 37.7460714,61.4534914 36.6415019,61.4534914 L19.0011909,61.4534914 C17.8966214,61.4534914 17.0011909,62.3489219 17.0011909,63.4534914 L17.0011909,84.4802838 C17.0011909,85.5848533 16.1057604,86.4802838 15.0011909,86.4802838 L2,86.4802838 C0.8954305,86.4802838 1.43461255e-14,85.5848533 1.42108547e-14,84.4802838 L1.42108547e-14,31.5005954 C1.36359138e-14,26.8058462 3.80584621,23 8.50059543,23 Z" id="Path-2"></path>
                <circle id="Oval" cx="8.5" cy="8.5" r="8.5"></circle>
                <circle id="Oval-Copy" cx="47.5" cy="8.5" r="8.5"></circle>
            </g>
        </g>
    </g>
</svg>